<svg class="h-6 w-6" xmlns="http://www.w3.org/2000/svg" viewBox="0 0 37.548 52.973">
  <defs>
    <clipPath id="clip-path">
      <rect id="Rectangle_41" data-name="Rectangle 41" width="37.548" height="52.973" fill="none"/>
    </clipPath>
  </defs>
  <path id="Path_64" data-name="Path 64" d="M27.093,34.248,15.261,51.608V34.249h-9.3V70.062h9.3V52.674L27.754,70.062H38.871L24.846,52.156,38.21,34.248Z" transform="translate(-2.935 -17.09)" fill="#00a3e0"/>
  <g id="Group_27" data-name="Group 27">
    <g id="Group_26" data-name="Group 26" clip-path="url(#clip-path)">
      <path id="Path_65" data-name="Path 65" d="M14.385,3.066a1.135,1.135,0,0,0,.356-.118l.066-.041,0-.006.015-.008,0,0,.011-.006a.085.085,0,0,1,.026-.024c.033-.036.067-.071.1-.106l0-.007.018-.017,0-.006A.069.069,0,0,0,15,2.714a.032.032,0,0,1,.005-.008l0,0,0-.006,0,0a1.091,1.091,0,0,0,.084-.15l.005-.006a1,1,0,0,0,.071-.305l.006-.024v-.1l-.006-.024a.964.964,0,0,0-.14-.421l-.009-.009,0-.007a.824.824,0,0,0-.087-.109.218.218,0,0,0-.023-.02l-.005-.005a.2.2,0,0,1-.032-.03l-.006,0-.008-.009-.007,0-.007-.008a.959.959,0,0,0-.279-.156.2.2,0,0,1-.042-.037l-.012-.018a.351.351,0,0,1-.019-.076c0-.015,0-.03,0-.045l0-.009V1.111l0-.008c0-.041-.009-.084-.014-.125l0-.008a.138.138,0,0,0,0-.029l.008-.02.01-.01A.152.152,0,0,1,14.527.9h.027l.16.032h.022l.023,0h.019l.009,0h.076l.008,0A.206.206,0,0,0,14.95.921a.236.236,0,0,0,.078-.054.23.23,0,0,0,.04-.1V.718A.2.2,0,0,0,15.008.6h0l0-.005a.337.337,0,0,0-.048-.026.708.708,0,0,0-.37.026h-.018l-.007,0a.222.222,0,0,1-.044-.01L14.5.573,14.494.564,14.489.541a.81.81,0,0,0-.018-.459L14.442.051A.323.323,0,0,0,14.378.01L14.343,0l-.05,0-.034.009-.028.017-.008.009-.007,0a.3.3,0,0,0-.054.077.351.351,0,0,0-.024.137l0,.008c0,.018,0,.035,0,.053l0,.008V.333l0,.009a1.737,1.737,0,0,1,.024.211.119.119,0,0,1-.014.035l-.008.006-.009,0-.022,0H14.1l-.009,0h-.01A1.233,1.233,0,0,0,13.8.556a.38.38,0,0,0-.107.032l-.036.024a.05.05,0,0,1-.011.01l0,0-.013.01,0,.005,0,0A.177.177,0,0,0,13.6.695a.227.227,0,0,0-.007.078.222.222,0,0,0,.02.069A.258.258,0,0,0,13.658.9l.027.021A.331.331,0,0,0,13.8.946h.032L13.856.94A1.361,1.361,0,0,0,14.107.9h.033a.2.2,0,0,1,.033.016l0,.006h0l.008.019,0,.035,0,.007V1l0,.009a1.1,1.1,0,0,1-.055.273l-.013.016a1.8,1.8,0,0,0-.254.14l0,0-.023.015,0,0-.019.012,0,.009h-.005a.734.734,0,0,0-.1.108l-.005,0,0,.005-.007.007a.084.084,0,0,1-.009.013l0,0,0,0a.861.861,0,0,0-.077.127l0,.006a.983.983,0,0,0-.1.375l0,.008a1.019,1.019,0,0,0,.16.552l0,0,.006.012.007,0,0,.006.008.014,0,0,.023.032a.081.081,0,0,1,.014.018l.006,0,.04.046.009.006h.006l0,.005.006.005.01.007a.077.077,0,0,0,.011.011l0,.006.008.005h0l.013.014.005,0h0a.9.9,0,0,0,.533.169" transform="translate(-6.673 0)" fill="#7c7d80"/>
      <path id="Path_66" data-name="Path 66" d="M10.894,19.327c-.347,0-.627-.185-.627-.413s.28-.411.627-.411.626.185.626.411-.282.413-.626.413m-3.242,0c-.347,0-.626-.185-.626-.413s.279-.411.626-.411.626.185.626.411-.281.413-.626.413m-3.22,0c-.347,0-.628-.185-.628-.413s.282-.411.628-.411.624.185.624.411-.28.413-.624.413m10.9-4.152c0-.021,0-.04,0-.061a.681.681,0,0,0-.075-.2l-.005,0a.1.1,0,0,0-.022-.032l0-.007-.008-.01,0-.006-.009-.008h0l-.031-.037-.006,0-.021-.022-.007,0-.015-.014-.04-.029a.26.26,0,0,1-.052-.028l-.045-.015-.069-.014h-.009l-.011,0h-.084l-.044.007h-.019l-.038.011a.665.665,0,0,0-.117.058,1.212,1.212,0,0,0-.121.112l0,.007-.03.032,0,.008-.017.021,0,.006-.015.015,0,.006-.009.009a1.53,1.53,0,0,0-.12.216,6.816,6.816,0,0,0-.286.922l-.011.02-.01.008-.009,0-.009,0-.016-.015c-.018-.052-.035-.1-.054-.155l-.012-.017,0-.013-.027-.049-.006-.005,0-.007a.731.731,0,0,0-.088-.11l-.009,0-.017-.023-.006,0,0,0-.007,0-.006-.008-.042-.029-.069-.032c-.04-.01-.08-.019-.121-.026h-.02l-.009,0H13.41l-.009,0h-.015l-.009,0H13.3a.515.515,0,0,0-.145.069l0,.005-.012.007-.007.01-.006,0-.013.015-.007,0,0,.005,0,0-.062.065,0,.008a.426.426,0,0,0-.061.09.439.439,0,0,0-.036.1.2.2,0,0,1-.007.045V16.1l0,.009c0,.044,0,.088,0,.132l0,.009v.014a.577.577,0,0,0,.08.214l.005,0,.008.017a.485.485,0,0,0,.048.064l.007.006a.914.914,0,0,0,.085.067.161.161,0,0,1,.035.018.783.783,0,0,0,.205.054h.055a.339.339,0,0,0,.078-.013h.02l.012-.007h.037l.022.013.015.017.008.014.01.04,0,.061a1.937,1.937,0,0,1-.1.321l-.006.008a1.289,1.289,0,0,1-.086.168l0,0-.025.039,0,0,0,.008,0,0-.008.014,0,0,0,.007-.006.007a.681.681,0,0,1-.074.093l-.007.006-.028.032-.009,0-.024.028-.007,0-.008.012-.007.005,0,0-.006,0-.005.006-.013.009,0,0a.373.373,0,0,0-.041.034l-.007,0-.005,0,0,.006,0,.005-.007,0,0,0a1.291,1.291,0,0,1-.592.239H12.3a1.1,1.1,0,0,1-.441-.166l0,0-.006,0,0,0-.028-.02,0-.006a.069.069,0,0,0-.017-.011l0,0-.036-.026,0,0-.02-.015-.013-.013-.015-.01-.012-.01,0,0-.007,0-.01-.009,0-.006-.007,0-.01-.008,0-.005-.094-.1,0-.007-.013-.014,0-.005-.014-.013,0-.006-.006-.008,0-.009h0l0-.008-.012-.013c-.01-.012-.019-.026-.027-.039l-.006,0c-.027-.039-.051-.078-.074-.12l-.075-.169-.007-.01a1.894,1.894,0,0,1-.134-.552.246.246,0,0,1,0-.055l.01-.024.01-.011.01,0h.013l.028.008.036.022,0,0,.016.012,0,0,.007,0,0,0,.005,0,0,.009.007,0,0,0,.015.011.007.008c.037.025.074.05.11.076a1.021,1.021,0,0,0,.208.085.3.3,0,0,0,.09.009l.01.007h.067l.1-.016a.73.73,0,0,0,.125-.051l.05-.035,0-.005.007,0a.359.359,0,0,0,.052-.052l0-.006.019-.02,0-.008a.752.752,0,0,0,.086-.166l.016-.062v-.024l0-.009V16.2l0-.012v-.049l0-.012v-.038l0-.011v-.015a.474.474,0,0,0-.077-.208l-.072-.083-.007,0-.022-.026-.005,0-.008-.01a.538.538,0,0,0-.146-.082l-.06-.011h-.027l-.01,0a1.3,1.3,0,0,0-.166.005,1.041,1.041,0,0,0-.2.069l-.008.007q-.111.067-.22.14l-.035.015-.015,0-.01-.007,0-.006,0-.02.024-.046.006,0,0-.006,0,0,0-.006a1.153,1.153,0,0,0,.195-.477V15.28l0-.032a.613.613,0,0,0-.006-.114l0-.014,0-.022a.6.6,0,0,0-.066-.185l0,0,0-.008a.487.487,0,0,0-.076-.092l-.007,0-.02-.025-.008,0a.475.475,0,0,0-.077-.057l-.008,0-.01-.009a.8.8,0,0,0-.081-.032l-.066-.011h-.011l-.01,0a.709.709,0,0,0-.127.005l-.077.02a1.232,1.232,0,0,0-.119.066l-.01.01-.012.005c-.022.024-.044.05-.064.075l0,.008-.006.006,0,.007,0,.005a.53.53,0,0,0-.1.278l0,.009v.089l0,.009v.026a1.315,1.315,0,0,0,.217.535l.007.02,0,.029,0,.011h0l-.008.006-.012,0-.017-.005c-.083-.055-.165-.109-.248-.166-.058-.026-.116-.048-.176-.069l-.1-.02h-.016l-.01,0h-.067a.54.54,0,0,0-.1.022.753.753,0,0,0-.14.083l0,.006-.008,0,0,.007-.007,0-.031.031-.006.008-.023.024,0,.008-.007,0-.005.008,0,0,0,.006a.629.629,0,0,0-.1.267v.027l0,.009v.026l0,.01V16.2a.843.843,0,0,0,.026.124.666.666,0,0,0,.142.236.816.816,0,0,0,.131.084.691.691,0,0,0,.134.038.86.86,0,0,0,.153-.008l.025-.006.033,0a.889.889,0,0,0,.242-.1l.017-.014a.714.714,0,0,0,.114-.07l0-.005.069-.048.025-.01.024,0,.014.008.011.022.008.031v.032l0,.009a1.642,1.642,0,0,1-.223.7l0,.005-.013.023,0,0,0,.007-.008.006L10.5,17.3l0,0-.009.017a.146.146,0,0,0-.02.027l0,.006-.005,0,0,.006,0,0-.026.04-.008.009,0,.007a.915.915,0,0,1-.089.1l-.011.013-.007,0-.012.011a.189.189,0,0,1-.02.021l-.007,0-.008.008,0,0-.007,0,0,.007-.009,0,0,.005-.006,0,0,.005-.01.006-.008.009-.007,0,0,0-.01.01H10.18l0,0-.025.02-.006,0,0,.005a1.4,1.4,0,0,1-.594.249H9.519l-.011,0H9.483l-.009,0H9.449l-.028.005H9.405l-.009,0H9.38l-.011,0H9.3l-.011,0H9.274l-.026-.006H9.233l-.03-.006H9.187l-.01,0H9.161l-.029-.005H9.118c-.054-.011-.108-.023-.161-.037l-.017-.008a1.115,1.115,0,0,1-.229-.1l-.007,0-.015-.006-.135-.085L8.5,17.632l-.005-.006-.015-.009-.171-.165,0-.009-.026-.026,0-.009a.429.429,0,0,1-.034-.046l-.006,0a.227.227,0,0,1-.021-.033l-.005,0,0-.006L8.2,17.309c-.037-.062-.073-.125-.108-.188l-.013-.032-.007-.009a1.466,1.466,0,0,1-.121-.419v-.024l0-.013c0-.019,0-.036,0-.055l.005-.033.008-.014.007-.005.018-.007H8a1.629,1.629,0,0,0,.439.2l.034,0,.008,0h.036a.883.883,0,0,0,.172-.038c.027-.013.054-.027.079-.041l0,0,.026-.018,0,0,.009-.008.006,0a.081.081,0,0,1,.011-.012l.014-.008.044-.05,0-.006.01-.011,0-.006.005-.005a.209.209,0,0,1,.03-.048.777.777,0,0,0,.049-.133l.008-.057v-.037l0-.012a1.163,1.163,0,0,0,0-.145.61.61,0,0,0-.021-.086c-.014-.029-.027-.057-.042-.084a.156.156,0,0,1-.022-.037l0,0c-.016-.021-.032-.041-.047-.063l0,0-.025-.026-.01-.007,0-.006a.252.252,0,0,0-.038-.031l-.013,0-.009-.008a.486.486,0,0,0-.156-.051H8.573l-.01,0H8.5l-.008,0H8.463a1.145,1.145,0,0,0-.211.066l-.043.027-.006,0c-.056.034-.112.07-.166.107l-.009,0-.01.007-.031.012h-.02l-.012-.005,0-.01v-.028L7.96,15.8a1.8,1.8,0,0,0,.176-.474l0-.031,0-.012,0-.078,0-.009v-.042a.6.6,0,0,0-.149-.332l-.006,0-.009-.009-.007,0,0,0-.007,0-.006-.008-.053-.04-.013,0-.008-.006-.1-.048-.062-.011H7.7l-.01,0H7.637l-.011,0h-.02L7.54,14.7a1.244,1.244,0,0,0-.143.069.094.094,0,0,1-.02.02h0l-.006.005,0,0a.058.058,0,0,0-.02.017l-.013.008-.041.047,0,.006-.006,0,0,.008,0,0,0,.007,0,0a.634.634,0,0,0-.1.3,1.661,1.661,0,0,0,.2.645l0,.018-.008.014-.011.008-.022,0a.343.343,0,0,1-.078-.04l-.018-.017-.041-.024-.025-.019-.01,0a.874.874,0,0,0-.323-.124H6.758A.71.71,0,0,0,6.6,15.7l-.057.039,0,0-.008,0,0,.005,0,0-.007.008-.007,0-.005.007-.009,0-.006.009-.015.012,0,0c-.014.016-.029.032-.042.049l0,0-.016.03-.007.011,0,0-.01.015,0,0,0,.005-.005,0-.021.036q-.013.033-.023.065l-.009.055V16.1l0,.009a.709.709,0,0,0,.042.3.51.51,0,0,0,.1.161l.006,0,.013.014.078.06a.734.734,0,0,0,.193.061h.028l.008,0h.022l.008,0h.027a.9.9,0,0,0,.289-.1l.008-.006.076-.041a.28.28,0,0,1,.1-.055h.026l.012.009.013.017.007.032v.054l-.007.038,0,.013a1.541,1.541,0,0,1-.177.524c-.025.038-.049.078-.071.119l-.015.021,0,0,0,.007a1.437,1.437,0,0,1-.159.187l-.007,0-.012.012,0,0-.01.01-.005.007-.007,0,0,0-.008.005-.012.015-.006,0-.007.007,0,0-.012.013,0,0-.013.017H6.819l-.008.011a1.261,1.261,0,0,1-.265.16l-.008.008a1.371,1.371,0,0,1-.375.113H6.147l-.062.011a1.424,1.424,0,0,1-.308-.011H5.76v-.009H5.708a1.346,1.346,0,0,1-.544-.253l-.012-.008-.013-.013-.028-.02,0,0-.022-.014,0,0-.007,0,0,0a.672.672,0,0,1-.083-.082l0-.009-.005,0-.1-.107,0-.009-.005,0,0-.006,0,0,0-.009c-.008-.013-.016-.025-.025-.036l0,0c-.009-.014-.018-.029-.026-.043h0a1.923,1.923,0,0,1-.1-.175,1.591,1.591,0,0,1-.134-.433v-.023l0-.012c0-.03-.007-.061-.008-.092l0-.012v-.012l0-.009V16.5l0-.021.012-.025h0l.01-.006h.02l.025.006.041.026,0,.005.006.007.007,0,0,0,0,.005.007.005h0c.038.027.077.053.117.077a1.258,1.258,0,0,0,.217.092l.065.009h.025l.011.007h.046l.01,0h.029l.011,0h.049c.037-.005.074-.013.11-.021a.345.345,0,0,0,.12-.069.353.353,0,0,0,.054-.041l.023-.028,0-.005,0,0,.042-.068.006-.014.007-.01a.644.644,0,0,0,.058-.191v-.074l0-.011v-.013h.007l0-.016-.009-.01,0-.038L5.7,16.066l0-.05a.426.426,0,0,0-.026-.084l-.044-.077,0,0-.008-.015-.007-.007,0-.007L5.6,15.818l0-.007a.163.163,0,0,1-.029-.035l-.007,0-.025-.028-.006,0-.007-.01-.013-.006,0-.005-.03-.02a.8.8,0,0,0-.2-.062.447.447,0,0,0-.1,0,1.419,1.419,0,0,0-.261.092c-.076.051-.152.1-.226.156l-.023.011H4.643L4.637,15.9l0-.007v-.024l.006-.026a1.445,1.445,0,0,0,.221-.575V15.2c-.01-.052-.022-.1-.035-.153a.816.816,0,0,0-.067-.145.446.446,0,0,0-.074-.086c-.027-.023-.054-.044-.082-.066l-.012,0-.009-.006a1.147,1.147,0,0,0-.128-.049l-.064-.011H4.334a.653.653,0,0,0-.165.05,1.126,1.126,0,0,0-.1.07l-.017.018-.007,0,0,.007-.007.007,0,.006-.007.006,0,.005a.152.152,0,0,1-.02.024l0,.008,0,.007-.005,0,0,.007a.543.543,0,0,0-.063.111.821.821,0,0,0-.037.153v.021l0,.011v.106l0,.011v.014a1.124,1.124,0,0,0,.072.246l.006.008,0,.012a1.65,1.65,0,0,0,.108.194.243.243,0,0,1,.042.068l.007.022V15.9l-.005.008-.008,0-.009,0L4.07,15.9a1.071,1.071,0,0,0-.45-.215h-.1l-.014-.005-.008.005H3.412a.571.571,0,0,0-.082.021l-.055.029-.008.008a.641.641,0,0,0-.128.114l0,.007a.5.5,0,0,0-.1.236.359.359,0,0,1-.006.057.783.783,0,0,0,.013.2.923.923,0,0,0,.076.167l.006.006,0,.007.007.008,0,.005.008.009.005.008.059.06.007,0,0,0,.043.03.067.032a.858.858,0,0,0,.16.035h.063a1.4,1.4,0,0,0,.285-.087l.052-.034,0,0,.03-.021,0,0,.028-.018,0-.007.019-.012,0-.007L4,16.531l0,0,.008-.005a.2.2,0,0,1,.019-.018l0-.005.007,0a.051.051,0,0,0,.012-.012l.028-.022.019-.01.019-.006h.016l.017.008a.251.251,0,0,1,.013.04,1.025,1.025,0,0,1-.01.148l0,.012a1.629,1.629,0,0,1-.176.56l0,.009a.465.465,0,0,1-.036.066l0,.011-.042.073-.012.014-.006.012,0,0,0,.008-.007.006,0,.006-.007.006,0,.006,0,0,0,.009-.008.009-.005,0a1.665,1.665,0,0,1-.133.154.34.34,0,0,1-.029.026.282.282,0,0,1-.038.035l-.01.005-.007.008-.007,0,0,.007-.014.008,0,0-.007,0-.005.008-.036.026,0,0c-.035.022-.069.044-.1.069A1.225,1.225,0,0,1,3,17.964H2.979l-.011,0H2.853l-.011,0H2.821a1.92,1.92,0,0,1-.332-.082c-.065-.035-.13-.068-.2-.1l-.016-.011H2.268l-.051-.034,0,0L2.2,17.727v-.006l-.007-.006,0,0L2.175,17.7l0,0-.006,0,0-.007-.007,0,0,0-.008,0,0-.005-.007-.005,0,0-.007,0L2.1,17.641H2.1l0-.005-.008-.005,0,0-.006,0A1,1,0,0,1,2,17.548l0-.008-.02-.021,0-.009-.01-.009,0-.006-.011-.01,0-.008-.009-.008,0-.009-.009-.008-.007-.018-.01-.006-.006-.015a1.485,1.485,0,0,1-.226-.557v-.05l.006-.029.013-.026.016-.009.031-.009h.013l.1.017h.018l.01,0a.627.627,0,0,0,.223-.043.775.775,0,0,0,.111-.074l.058-.061,0-.006a.163.163,0,0,1,.018-.023l0-.009.006,0,.012-.023.006,0,.013-.025,0,0a.184.184,0,0,1,.025-.044.719.719,0,0,0,.049-.184v-.018l0-.011a.763.763,0,0,0-.1-.327l-.006-.006,0-.007a.474.474,0,0,0-.065-.074l-.006,0-.011-.016-.006,0,0,0-.007,0,0,0-.008,0v0l-.049-.034a.474.474,0,0,0-.1-.042l-.065-.013H1.872a.677.677,0,0,0-.146.041l-.008.007-.008,0-.076.055,0,0-.007,0,0,.008-.007,0,0,.005-.007,0a.392.392,0,0,0-.044.043l-.005.009-.019.019,0,.007,0,0a1.53,1.53,0,0,0-.12.283l0,0,0,.008-.006,0H1.377l-.014-.015a.6.6,0,0,1-.038-.1,4.161,4.161,0,0,0-.219-.748,2.955,2.955,0,0,0-.149-.29L.95,15.037l0-.008A2.041,2.041,0,0,0,.8,14.87l-.007,0-.013-.012a.554.554,0,0,0-.236-.1H.534l-.01,0H.413l-.01,0H.391l-.056.013a.637.637,0,0,0-.113.06.125.125,0,0,1-.023.016.086.086,0,0,0-.014.016l-.007,0c-.019.016-.036.032-.054.05a.167.167,0,0,1-.014.018l-.062.106A.649.649,0,0,0,0,15.219c0,.02,0,.04,0,.061l0,.01a2.7,2.7,0,0,0,.488,1.055l.005.013c.076.14.151.279.225.419l.005.015c.038.078.078.156.116.234l.006.009.022.055.013.02c.1.228.208.456.307.688l0,.014c.024.054.046.108.066.163l.011.018a10.629,10.629,0,0,1,.57,2.3l.012.026.015.018.017.012.021.011.053.008,11.4,0,.008-.005h.052l.035-.008.022-.01A.284.284,0,0,0,13.5,20.3l.015-.037c.013-.081.021-.164.026-.247l0-.013a9.989,9.989,0,0,1,.952-3.029l.008-.024.007-.01c.034-.067.067-.134.1-.2l.012-.019a.342.342,0,0,1,.03-.061l0-.013a.748.748,0,0,0,.057-.114l.04-.072,0-.01c.048-.088.1-.177.146-.264l0-.015c.061-.106.12-.212.179-.318l.005-.011a2.227,2.227,0,0,0,.125-.219l0-.009.014-.021a.865.865,0,0,0,.093-.37l0-.011v-.032Z" transform="translate(0 -7.249)" fill="#7c7d80"/>
      <path id="Path_67" data-name="Path 67" d="M2.365,12.38a.559.559,0,0,1-.522.589.592.592,0,0,1,0-1.176.559.559,0,0,1,.522.587" transform="translate(-0.654 -5.831)" fill="#7c7d80"/>
      <path id="Path_68" data-name="Path 68" d="M4.158,9.823a.5.5,0,0,1-.472.523.526.526,0,0,1,0-1.047.5.5,0,0,1,.472.523" transform="translate(-1.589 -4.598)" fill="#7c7d80"/>
      <path id="Path_69" data-name="Path 69" d="M6.53,8.106a.41.41,0,1,1-.41-.445.426.426,0,0,1,.41.445" transform="translate(-2.824 -3.788)" fill="#7c7d80"/>
      <path id="Path_70" data-name="Path 70" d="M8.968,6.912a.345.345,0,1,1-.342-.387.367.367,0,0,1,.342.387" transform="translate(-4.095 -3.226)" fill="#7c7d80"/>
      <path id="Path_71" data-name="Path 71" d="M11.349,6.624a.329.329,0,1,1-.327-.353.343.343,0,0,1,.327.353" transform="translate(-5.287 -3.101)" fill="#7c7d80"/>
      <path id="Path_72" data-name="Path 72" d="M13.341,7.163a.288.288,0,1,1-.285-.308.3.3,0,0,1,.285.308" transform="translate(-6.312 -3.389)" fill="#7c7d80"/>
      <path id="Path_73" data-name="Path 73" d="M11.93,8.667a.3.3,0,1,1-.294-.316.305.305,0,0,1,.294.316" transform="translate(-5.607 -4.129)" fill="#7c7d80"/>
      <path id="Path_74" data-name="Path 74" d="M9.122,12.281a.486.486,0,1,1-.483-.529.51.51,0,0,1,.483.529" transform="translate(-4.032 -5.81)" fill="#7c7d80"/>
      <path id="Path_75" data-name="Path 75" d="M15.175,12.241a.485.485,0,1,1-.484-.53.506.506,0,0,1,.484.53" transform="translate(-7.025 -5.79)" fill="#7c7d80"/>
      <path id="Path_76" data-name="Path 76" d="M15.171,9.715a.371.371,0,1,1-.37-.406.388.388,0,0,1,.37.406" transform="translate(-7.136 -4.603)" fill="#7c7d80"/>
      <path id="Path_77" data-name="Path 77" d="M15.166,7.713a.271.271,0,1,1-.27-.3.281.281,0,0,1,.27.3" transform="translate(-7.232 -3.667)" fill="#7c7d80"/>
      <path id="Path_78" data-name="Path 78" d="M10.225,10.079A.351.351,0,1,1,9.874,9.7a.364.364,0,0,1,.351.379" transform="translate(-4.71 -4.796)" fill="#7c7d80"/>
      <path id="Path_79" data-name="Path 79" d="M26.944,12.38a.524.524,0,1,0,.52-.587.557.557,0,0,0-.52.587" transform="translate(-13.322 -5.831)" fill="#7c7d80"/>
      <path id="Path_80" data-name="Path 80" d="M25.243,9.823a.475.475,0,1,0,.472-.523.5.5,0,0,0-.472.523" transform="translate(-12.481 -4.598)" fill="#7c7d80"/>
      <path id="Path_81" data-name="Path 81" d="M23,8.106a.409.409,0,1,0,.407-.445A.426.426,0,0,0,23,8.106" transform="translate(-11.372 -3.788)" fill="#7c7d80"/>
      <path id="Path_82" data-name="Path 82" d="M20.691,6.912a.344.344,0,1,0,.34-.387.367.367,0,0,0-.34.387" transform="translate(-10.23 -3.226)" fill="#7c7d80"/>
      <path id="Path_83" data-name="Path 83" d="M18.337,6.624a.328.328,0,1,0,.328-.353.342.342,0,0,0-.328.353" transform="translate(-9.066 -3.101)" fill="#7c7d80"/>
      <path id="Path_84" data-name="Path 84" d="M16.422,7.163a.288.288,0,1,0,.288-.308.3.3,0,0,0-.288.308" transform="translate(-8.119 -3.389)" fill="#7c7d80"/>
      <path id="Path_85" data-name="Path 85" d="M17.817,8.667a.3.3,0,1,0,.3-.316.307.307,0,0,0-.3.316" transform="translate(-8.809 -4.129)" fill="#7c7d80"/>
      <path id="Path_86" data-name="Path 86" d="M20.26,12.281a.485.485,0,1,0,.483-.529.509.509,0,0,0-.483.529" transform="translate(-10.017 -5.81)" fill="#7c7d80"/>
      <path id="Path_87" data-name="Path 87" d="M19.42,10.079a.351.351,0,1,0,.349-.379.363.363,0,0,0-.349.379" transform="translate(-9.602 -4.796)" fill="#7c7d80"/>
      <path id="Path_88" data-name="Path 88" d="M59.707,24.961a.293.293,0,0,1-.586,0,.283.283,0,0,1,.293-.282.287.287,0,0,1,.293.282" transform="translate(-29.231 -12.202)" fill="#7c7d80"/>
      <path id="Path_89" data-name="Path 89" d="M57.662,21.829c-.292.2-.825-.119-1.147-.695a3.587,3.587,0,0,1-.3-1.7,4.216,4.216,0,0,1,1.292,1c.425.569.481,1.168.155,1.393" transform="translate(-27.791 -9.611)" fill="#7c7d80"/>
      <path id="Path_90" data-name="Path 90" d="M53.805,19.624c-.351.07-.871-.4-1.014-1.092a5.18,5.18,0,0,1,.117-1.78A4.693,4.693,0,0,1,54.08,18.26c.23.689.074,1.274-.275,1.364" transform="translate(-26.08 -8.283)" fill="#7c7d80"/>
      <path id="Path_91" data-name="Path 91" d="M55.616,23.164a.218.218,0,0,1-.279.125.208.208,0,0,1-.132-.268.221.221,0,0,1,.281-.126.207.207,0,0,1,.13.269" transform="translate(-27.289 -11.314)" fill="#7c7d80"/>
      <path id="Path_92" data-name="Path 92" d="M50.439,17.56c-.343,0-.6-.315-.6-.909a3.341,3.341,0,0,1,.612-1.568,3.532,3.532,0,0,1,.582,1.478c0,.612-.248,1-.594,1" transform="translate(-24.642 -7.457)" fill="#7c7d80"/>
      <path id="Path_93" data-name="Path 93" d="M52.073,21.48a.243.243,0,0,1-.332.029.22.22,0,0,1-.029-.318.247.247,0,0,1,.334-.027.218.218,0,0,1,.027.316" transform="translate(-25.54 -10.438)" fill="#7c7d80"/>
      <path id="Path_94" data-name="Path 94" d="M49.221,19.1a.181.181,0,0,1-.242-.061.168.168,0,0,1,.069-.23.177.177,0,0,1,.24.06.165.165,0,0,1-.067.231" transform="translate(-24.206 -9.289)" fill="#7c7d80"/>
      <path id="Path_95" data-name="Path 95" d="M47.53,14.887a.259.259,0,0,1-.3-.208.267.267,0,0,1,.229-.3.253.253,0,0,1,.3.207.267.267,0,0,1-.226.3" transform="translate(-23.349 -7.109)" fill="#7c7d80"/>
      <path id="Path_96" data-name="Path 96" d="M48.6,11.747a.245.245,0,0,1-.208-.3.291.291,0,0,1,.32-.226.248.248,0,0,1,.207.3.293.293,0,0,1-.319.225" transform="translate(-23.922 -5.548)" fill="#7c7d80"/>
      <path id="Path_97" data-name="Path 97" d="M48.437,20.957c-.114.358-.526.52-1.146.321a3.629,3.629,0,0,1-1.425-1.156,3.856,3.856,0,0,1,1.729-.112c.637.2.956.588.842.947" transform="translate(-22.677 -9.859)" fill="#7c7d80"/>
      <path id="Path_98" data-name="Path 98" d="M51.827,23.224c.041.333-.271.621-.918.687a3.924,3.924,0,0,1-1.772-.426,4.042,4.042,0,0,1,1.537-.732c.666-.067,1.111.132,1.153.471" transform="translate(-24.295 -11.243)" fill="#7c7d80"/>
      <path id="Path_99" data-name="Path 99" d="M55.573,24.309c.128.268-.051.6-.57.833a3.444,3.444,0,0,1-1.6.147,3.536,3.536,0,0,1,1.075-1.046c.534-.243.964-.205,1.093.066" transform="translate(-26.405 -11.906)" fill="#7c7d80"/>
      <path id="Path_100" data-name="Path 100" d="M46.853,16.813c-.22.22-.607.159-1.02-.271a3.61,3.61,0,0,1-.7-1.53,3.683,3.683,0,0,1,1.4.7c.429.442.538.878.316,1.1" transform="translate(-22.315 -7.422)" fill="#7c7d80"/>
      <path id="Path_101" data-name="Path 101" d="M48.8,14.222c-.232-.043-.344-.336-.232-.827a3.291,3.291,0,0,1,.711-1.208,3.254,3.254,0,0,1,.108,1.291c-.115.507-.355.791-.587.744" transform="translate(-23.991 -6.026)" fill="#7c7d80"/>
      <path id="Path_102" data-name="Path 102" d="M48.093,8.827c-.232-.008-.392-.25-.37-.692A2.7,2.7,0,0,1,48.2,6.981,2.742,2.742,0,0,1,48.531,8.1c-.025.456-.206.739-.438.729" transform="translate(-23.594 -3.452)" fill="#7c7d80"/>
      <path id="Path_103" data-name="Path 103" d="M49.68,9.32c-.13-.121-.093-.349.164-.609a2.392,2.392,0,0,1,.9-.475,2.385,2.385,0,0,1-.418.852c-.264.269-.518.35-.651.231" transform="translate(-24.527 -4.073)" fill="#7c7d80"/>
      <path id="Path_104" data-name="Path 104" d="M51.944,5.516c-.115-.105-.082-.3.14-.536a2.029,2.029,0,0,1,.79-.422,2.074,2.074,0,0,1-.36.749c-.229.239-.454.311-.569.209" transform="translate(-25.65 -2.253)" fill="#7c7d80"/>
      <path id="Path_105" data-name="Path 105" d="M46.833,11.852c-.253.087-.526-.106-.682-.595a3.072,3.072,0,0,1,.033-1.436A3.143,3.143,0,0,1,47,10.887c.164.5.085.876-.169.965" transform="translate(-22.779 -4.856)" fill="#7c7d80"/>
      <path id="Path_106" data-name="Path 106" d="M49.67,6.718c-.2-.1-.242-.365-.052-.737a2.545,2.545,0,0,1,.85-.812,2.614,2.614,0,0,1-.142,1.09c-.194.382-.459.558-.656.46" transform="translate(-24.473 -2.556)" fill="#7c7d80"/>
      <path id="Path_107" data-name="Path 107" d="M60.113,21.829c.292.2.825-.119,1.146-.695a3.6,3.6,0,0,0,.3-1.7,4.21,4.21,0,0,0-1.292,1c-.423.569-.481,1.168-.155,1.393" transform="translate(-29.618 -9.611)" fill="#7c7d80"/>
      <path id="Path_108" data-name="Path 108" d="M64.187,19.624c.351.07.87-.4,1.014-1.092a5.194,5.194,0,0,0-.117-1.78,4.693,4.693,0,0,0-1.172,1.508c-.231.689-.072,1.274.275,1.364" transform="translate(-31.546 -8.283)" fill="#7c7d80"/>
      <path id="Path_109" data-name="Path 109" d="M63.357,23.164a.221.221,0,0,0,.281.125.206.206,0,0,0,.131-.268.22.22,0,0,0-.281-.126.211.211,0,0,0-.132.269" transform="translate(-31.319 -11.314)" fill="#7c7d80"/>
      <path id="Path_110" data-name="Path 110" d="M67.8,17.56c.343,0,.6-.315.6-.909a3.337,3.337,0,0,0-.613-1.568,3.537,3.537,0,0,0-.58,1.478c0,.612.248,1,.594,1" transform="translate(-33.226 -7.457)" fill="#7c7d80"/>
      <path id="Path_111" data-name="Path 111" d="M66.868,21.48a.243.243,0,0,0,.332.029.218.218,0,0,0,.028-.318.245.245,0,0,0-.332-.027.216.216,0,0,0-.027.316" transform="translate(-33.033 -10.438)" fill="#7c7d80"/>
      <path id="Path_112" data-name="Path 112" d="M69.833,19.1a.182.182,0,0,0,.244-.061.165.165,0,0,0-.069-.23.178.178,0,0,0-.24.06.167.167,0,0,0,.066.231" transform="translate(-34.484 -9.289)" fill="#7c7d80"/>
      <path id="Path_113" data-name="Path 113" d="M71.351,14.887a.254.254,0,0,0,.3-.208.266.266,0,0,0-.227-.3.25.25,0,0,0-.3.207.265.265,0,0,0,.227.3" transform="translate(-35.164 -7.109)" fill="#7c7d80"/>
      <path id="Path_114" data-name="Path 114" d="M70.28,11.747a.246.246,0,0,0,.208-.3.29.29,0,0,0-.319-.226.247.247,0,0,0-.209.3.291.291,0,0,0,.32.225" transform="translate(-34.587 -5.548)" fill="#7c7d80"/>
      <path id="Path_115" data-name="Path 115" d="M68.429,20.957c.116.358.526.52,1.146.321A3.638,3.638,0,0,0,71,20.121a3.871,3.871,0,0,0-1.732-.112c-.635.2-.954.588-.84.947" transform="translate(-33.822 -9.859)" fill="#7c7d80"/>
      <path id="Path_116" data-name="Path 116" d="M64.941,23.224c-.041.333.271.621.918.687a3.924,3.924,0,0,0,1.772-.426,4.055,4.055,0,0,0-1.537-.732c-.664-.067-1.111.132-1.153.471" transform="translate(-32.107 -11.243)" fill="#7c7d80"/>
      <path id="Path_117" data-name="Path 117" d="M61.669,24.309c-.129.268.05.6.57.833a3.45,3.45,0,0,0,1.6.147,3.546,3.546,0,0,0-1.077-1.046c-.533-.243-.964-.205-1.092.066" transform="translate(-30.471 -11.906)" fill="#7c7d80"/>
      <path id="Path_118" data-name="Path 118" d="M70.756,16.813c.22.22.607.159,1.021-.271a3.62,3.62,0,0,0,.7-1.53,3.676,3.676,0,0,0-1.4.7c-.43.442-.538.878-.316,1.1" transform="translate(-34.928 -7.422)" fill="#7c7d80"/>
      <path id="Path_119" data-name="Path 119" d="M69.724,14.222c.234-.043.345-.336.234-.827a3.3,3.3,0,0,0-.711-1.208,3.241,3.241,0,0,0-.108,1.291c.115.507.355.791.585.744" transform="translate(-34.167 -6.026)" fill="#7c7d80"/>
      <path id="Path_120" data-name="Path 120" d="M70.517,8.827c.23-.008.39-.25.368-.692a2.7,2.7,0,0,0-.477-1.155A2.769,2.769,0,0,0,70.078,8.1c.023.456.206.739.439.729" transform="translate(-34.647 -3.452)" fill="#7c7d80"/>
      <path id="Path_121" data-name="Path 121" d="M68.6,9.32c.131-.121.092-.349-.163-.609a2.394,2.394,0,0,0-.906-.475,2.371,2.371,0,0,0,.419.852c.261.269.519.35.65.231" transform="translate(-33.39 -4.073)" fill="#7c7d80"/>
      <path id="Path_122" data-name="Path 122" d="M66.485,5.516c.115-.105.082-.3-.139-.536a2.043,2.043,0,0,0-.79-.422,2.079,2.079,0,0,0,.36.749c.229.239.452.311.569.209" transform="translate(-32.412 -2.253)" fill="#7c7d80"/>
      <path id="Path_123" data-name="Path 123" d="M71.576,11.852c.253.087.526-.106.682-.595a3.079,3.079,0,0,0-.033-1.436,3.163,3.163,0,0,0-.819,1.066c-.164.5-.085.876.169.965" transform="translate(-35.263 -4.856)" fill="#7c7d80"/>
      <path id="Path_124" data-name="Path 124" d="M68.776,6.718c.2-.1.242-.365.054-.737a2.559,2.559,0,0,0-.851-.812,2.619,2.619,0,0,0,.141,1.09c.194.382.458.558.657.46" transform="translate(-33.607 -2.556)" fill="#7c7d80"/>
    </g>
  </g>
</svg>